HIERARCHY
	ROOT Hips
	{
		OFFSET 0 0 0 
		CHANNELS 6 Xposition Yposition Zposition Zrotation Xrotation Yrotation
		JOINT LHipJoint
		{
			OFFSET 0 0 0 
			CHANNELS 3 Zrotation Xrotation Yrotation
			JOINT LeftUpLeg
			{
				OFFSET 0.0783705 -0.0912565 0.0336595 
				CHANNELS 3 Zrotation Xrotation Yrotation
				JOINT LeftLeg
				{
					OFFSET 0.117854 -0.323802 0 
					CHANNELS 3 Zrotation Xrotation Yrotation
					JOINT LeftFoot
					{
						OFFSET 0.135318 -0.371784 0 
						CHANNELS 3 Zrotation Xrotation Yrotation
						JOINT LeftToeBase
						{
							OFFSET 0.0102135 -0.028061 0.104268 
							CHANNELS 3 Zrotation Xrotation Yrotation
							End Site
							{
								OFFSET 0 -0 0.0542675
							}
						}
					}
				}
			}
		}
		JOINT RHipJoint
		{
			OFFSET 0 0 0 
			CHANNELS 3 Zrotation Xrotation Yrotation
			JOINT RightUpLeg
			{
				OFFSET -0.075711 -0.0912565 0.0336595 
				CHANNELS 3 Zrotation Xrotation Yrotation
				JOINT RightLeg
				{
					OFFSET -0.124412 -0.341819 0 
					CHANNELS 3 Zrotation Xrotation Yrotation
					JOINT RightFoot
					{
						OFFSET -0.135017 -0.370955 0 
						CHANNELS 3 Zrotation Xrotation Yrotation
						JOINT RightToeBase
						{
							OFFSET -0.009875 -0.0271315 0.111076 
							CHANNELS 3 Zrotation Xrotation Yrotation
							End Site
							{
								OFFSET -0 -0 0.0574575
							}
						}
					}
				}
			}
		}
		JOINT LowerBack
		{
			OFFSET 0 0 0 
			CHANNELS 3 Zrotation Xrotation Yrotation
			JOINT Spine
			{
				OFFSET -0.0007835 0.106437 -0.007921 
				CHANNELS 3 Zrotation Xrotation Yrotation
				JOINT Spine1
				{
					OFFSET 0.003049 0.106663 -0.0005215 
					CHANNELS 3 Zrotation Xrotation Yrotation
					JOINT Neck
					{
						OFFSET 0 0 0 
						CHANNELS 3 Zrotation Xrotation Yrotation
						JOINT Neck1
						{
							OFFSET -0.00252 0.089216 0.0066935 
							CHANNELS 3 Zrotation Xrotation Yrotation
							JOINT Head
							{
								OFFSET -9e-005 0.08844 -0.0166515 
								CHANNELS 3 Zrotation Xrotation Yrotation
								End Site
								{
									OFFSET 0.000367 0.0906245 -0.0063595
								}
							}
						}
					}
					JOINT LeftShoulder
					{
						OFFSET 0 0 0 
						CHANNELS 3 Zrotation Xrotation Yrotation
						JOINT LeftArm
						{
							OFFSET 0.1861 0.047094 -0.0271585 
							CHANNELS 3 Zrotation Xrotation Yrotation
							JOINT LeftForeArm
							{
								OFFSET 0.257301 -0 0 
								CHANNELS 3 Zrotation Xrotation Yrotation
								JOINT LeftHand
								{
									OFFSET 0.182226 -0 -0 
									CHANNELS 3 Zrotation Xrotation Yrotation
									JOINT LeftFingerBase
									{
										OFFSET 0 0 0 
										CHANNELS 3 Zrotation Xrotation Yrotation
										JOINT LFingers
										{
											OFFSET 0.028114 -0 0 
											CHANNELS 3 Zrotation Xrotation Yrotation
											End Site
											{
												OFFSET 0.022666 -0 0
											}
										}
									}
									JOINT LThumb
									{
										OFFSET 0 0 0 
										CHANNELS 3 Zrotation Xrotation Yrotation
										End Site
										{
											OFFSET 0.0230125 -0 0.0230125
										}
									}
								}
							}
						}
					}
					JOINT RightShoulder
					{
						OFFSET 0 0 0 
						CHANNELS 3 Zrotation Xrotation Yrotation
						JOINT RightArm
						{
							OFFSET -0.165127 0.0613395 -0.0234705 
							CHANNELS 3 Zrotation Xrotation Yrotation
							JOINT RightForeArm
							{
								OFFSET -0.266957 -0 0 
								CHANNELS 3 Zrotation Xrotation Yrotation
								JOINT RightHand
								{
									OFFSET -0.178239 -0 -0 
									CHANNELS 3 Zrotation Xrotation Yrotation
									JOINT RightFingerBase
									{
										OFFSET 0 0 0 
										CHANNELS 3 Zrotation Xrotation Yrotation
										JOINT RFingers
										{
											OFFSET -0.0428735 -0 0 
											CHANNELS 3 Zrotation Xrotation Yrotation
											End Site
											{
												OFFSET -0.034566 -0 0
											}
										}
									}
									JOINT RThumb
									{
										OFFSET 0 0 0 
										CHANNELS 3 Zrotation Xrotation Yrotation
										End Site
										{
											OFFSET -0.0350935 -0 0.0350935
										}
									}
								}
							}
						}
					}
				}
			}
		}
	}
MOTION
Frames:	8
Frame Time:	0.0166667
-0.589555 0.88859 -0.61276 0.542022 6.16162 -8.02647 -0 0 -0 -20.3453 -7.37753 -8.7384 -1.56592 21.4894 8.23847 2.14746 -16.2029 6.00765 -0.547925 -12.9822 -4.81331 -0 0 -0 27.6545 -14.2869 8.20596 3.55423 31.1438 -12.7056 -2.7753 -18.6981 -6.58866 0.443874 11.7104 -4.32672 0.268446 3.26142 -2.14247 4.07313 -0.705783 -2.75581 4.24279 -2.36094 -1.35445 -10.4288 -8.50085 -9.68794 6.9392 10.3483 -12.5122 2.48792 5.41443 -6.12162 -0 0 -0 -91.9684 14.7517 1.42653 17.2758 -4.81751 -30.9554 -0 0.4304 -0 13.881 3.31339 13.1636 -7.125 0 0 -11.8693 0.368204 43.2486 -0 0 -0 74.1969 15.4197 16.1334 -31.6022 -20.509 65.1795 0 -8.5903 0 2.5478 0.329557 7.36632 7.125 0 -0 25.8743 11.2229 -23.1356 
-0.589875 0.88862 -0.613365 0.541846 6.0769 -7.79195 -0 0 -0 -20.3214 -7.34962 -8.69882 -1.56061 21.4548 8.2238 2.06634 -16.0512 5.7659 -0.541434 -12.9069 -4.78435 -0 0 -0 27.6399 -14.2477 8.08539 3.56403 31.1812 -12.7246 -2.82257 -18.8674 -6.63508 0.476459 12.1231 -4.4841 -0.0574976 3.55109 -2.11085 4.05415 -0.839855 -2.71689 4.429 -2.65039 -1.32532 -10.3673 -8.28954 -9.75409 7.128 10.6352 -12.6729 2.51506 5.48592 -6.19097 -0 0 -0 -91.9197 15.378 1.42825 18.0974 -5.32405 -32.5499 0 -0.5878 0 10.0427 3.58679 19.4564 -7.125 0 0 -15.3112 -1.10608 49.0332 -0 0 -0 73.8902 15.1018 16.5206 -31.3813 -20.0688 64.4136 0 -4.3852 0 2.95054 0.316684 6.12069 7.125 0 -0 26.4426 10.8401 -24.2856 
-0.5898 0.888655 -0.613425 0.535765 6.018 -7.54019 -0 0 -0 -20.3292 -7.32497 -8.61826 -1.55475 21.4176 8.20803 1.9806 -15.8668 5.52429 -0.592185 -13.4829 -5.00642 -0 0 -0 27.5421 -14.3264 7.79536 3.56861 31.1986 -12.7334 -2.77728 -18.8005 -6.51509 0.465486 11.9865 -4.43192 -0.0963464 3.46483 -2.12118 3.96098 -0.788699 -2.73786 4.34698 -2.55001 -1.33752 -10.2586 -8.37287 -9.91968 7.17931 10.8134 -12.9198 2.46953 5.5634 -6.3012 -0 0 -0 -91.9433 16.1893 1.39316 18.453 -5.55292 -33.2463 0 -1.8707 0 9.1367 3.61707 21.4182 -7.125 0 0 -16.0706 -1.68164 50.8166 -0 0 -0 73.6645 14.2463 17.7105 -31.0657 -19.463 63.3516 0 -3.3897 0 6.56074 0.738969 6.39813 7.125 0 -0 29.5797 12.5162 -24.1029 
-0.589975 0.888635 -0.6131 0.583685 6.07976 -7.40458 -0 0 -0 -20.3781 -7.37857 -8.7004 -1.55584 21.4245 8.21089 1.95866 -15.8688 5.42233 -0.56485 -13.1754 -4.88776 -0 0 -0 27.4856 -14.3896 7.73311 3.56748 31.1943 -12.7312 -2.82524 -18.8708 -6.64241 0.440201 11.6617 -4.30819 -0.356207 3.27044 -2.0849 3.9802 -0.802406 -2.70407 4.50166 -2.44495 -1.3182 -10.5503 -8.34371 -10.0476 7.4425 10.921 -13.0985 2.5695 5.63845 -6.38381 -0 0 -0 -92.0314 16.2389 0.924591 18.6701 -5.69577 -33.6737 0 -0.2806 0 10.4012 3.57545 18.765 -7.125 0 0 -15.0009 -0.913508 48.4048 -0 0 -0 73.1871 14.182 17.8508 -30.9218 -19.195 62.8787 0 -4.4653 0 9.57861 1.13658 6.70402 7.125 0 -0 32.1559 14.0568 -23.8758 
-0.59011 0.888475 -0.613145 0.462867 5.92669 -7.21839 -0 0 -0 -20.2553 -7.30662 -8.69313 -1.57345 21.5375 8.25898 1.91697 -15.8482 5.24864 -0.569212 -13.2252 -4.90695 -0 0 -0 27.603 -14.1631 7.6931 3.55679 31.1537 -12.7106 -2.9023 -18.9268 -6.89114 0.469726 12.04 -4.45233 -0.480378 3.60876 -2.0188 4.03473 -0.913951 -2.61073 4.64809 -2.74983 -1.26325 -10.9418 -8.55722 -10.2352 7.73292 11.38 -13.3456 2.64957 5.87155 -6.49412 -0 0 -0 -92.2118 16.6552 0.751635 18.8901 -5.84277 -34.1083 -0 0.1632 -0 10.8084 3.78296 19.0645 -7.125 0 0 -14.5606 -0.979174 48.7641 -0 0 -0 72.9853 13.8322 17.5448 -30.8332 -19.0325 62.5913 0 -8.4266 0 14.8108 1.89954 7.14555 7.125 0 -0 36.5493 16.9494 -23.5318 
-0.59025 0.88852 -0.61337 0.286422 5.8556 -7.10557 -0 0 -0 -20.0344 -7.35356 -8.51454 -1.58828 21.6321 8.29921 1.85398 -15.7895 5.00677 -0.613944 -13.7221 -5.0989 -0 0 -0 27.7784 -14.0486 7.63104 3.545 31.1091 -12.6878 -2.90533 -18.8418 -6.97222 0.465245 11.9836 -4.43085 -0.211984 3.25099 -1.8036 3.73356 -0.587612 -2.33342 4.12554 -2.25895 -1.14049 -10.5982 -9.00455 -10.5609 8.08229 11.4419 -13.8421 2.60777 5.99139 -6.68448 -0 0 -0 -91.2585 17.6084 -0.344018 18.8935 -5.84507 -34.1149 -0 0.3175 -0 11.1024 3.72367 18.3122 -7.125 0 0 -14.3225 -0.782158 48.0605 -0 0 -0 73.785 12.8779 17.013 -30.8593 -19.0804 62.6762 0 -14.4909 0 20.39 2.46429 6.59853 7.125 0 -0 41.3252 19.7654 -23.9638 
-0.59006 0.888495 -0.6132 0.361428 5.76787 -6.6267 -0 0 -0 -20.1607 -7.21081 -8.65094 -1.57463 21.545 8.2621 1.75467 -15.6923 4.62691 -0.57296 -13.2678 -4.92333 -0 0 -0 27.5357 -14.1303 7.18097 3.55042 31.1294 -12.6982 -2.93082 -18.8524 -7.06128 0.429141 11.5174 -4.2533 -0.291148 3.09866 -1.97409 3.63965 -0.625571 -2.56775 4.08131 -2.19577 -1.25752 -10.6746 -8.17115 -10.5346 8.30777 10.9491 -13.8806 2.76791 5.73649 -6.7196 -0 0 -0 -91.2344 17.6022 -0.636923 18.9847 -5.90676 -34.2956 -0 0.4654 -0 9.67827 4.03699 22.431 -7.125 0 0 -15.4066 -1.91406 51.9109 -0 0 -0 74.2012 13.2435 16.542 -30.9852 -19.3125 63.0864 0 -21.7497 0 19.2709 1.30126 3.71646 7.125 0 -0 41.0847 17.0486 -26.4141 
-0.59028 0.888495 -0.6129 0.34429 5.67443 -6.31075 -0 0 -0 -20.1533 -7.13936 -8.72658 -1.57951 21.5762 8.27541 1.70242 -15.6247 4.4376 -0.565934 -13.1882 -4.89264 -0 0 -0 27.5089 -14.0138 7.01509 3.54134 31.0951 -12.6808 -3.00256 -19.0638 -7.16008 0.501639 12.4334 -4.60277 -0.361084 2.96775 -1.91177 3.52465 -0.455368 -2.49608 3.98098 -1.95475 -1.22591 -10.7208 -8.20537 -10.8451 8.48597 10.7436 -14.3017 2.78669 5.72264 -6.91543 -0 0 -0 -90.9985 18.1498 -1.34061 19.2732 -6.10462 -34.8692 -0 0.4491 -0 8.53848 3.86081 24.1548 -7.125 0 0 -16.4123 -2.49116 53.3943 -0 0 -0 75.015 12.5102 16.3674 -30.959 -19.2639 63.0007 0 -26.9169 0 15.1623 1.11801 4.11829 7.125 0 -0 37.502 15.2022 -26.1338 
